<svg xmlns="http://www.w3.org/2000/svg" width="30" height="30" viewBox="0 0 30 30">
  <defs>
    <style>
      .cls-1 {
        fill: #c92228;
        fill-rule: evenodd;
      }
    </style>
  </defs>
  <path id="Forma_1_copy_28" data-name="Forma 1 copy 28" class="cls-1" d="M190.988,1973h-24a3.009,3.009,0,0,0-3,3v23.99a3.009,3.009,0,0,0,3,3h24a3.009,3.009,0,0,0,3-3V1976A3.009,3.009,0,0,0,190.988,1973Zm-10.5,21.29a4.085,4.085,0,0,1-3.15-1.35l-1.5,4.8-0.15.3h0a1.574,1.574,0,0,1-1.349.75,1.665,1.665,0,0,1-1.65-1.65v-0.15h0l0.15-.3,2.7-8.39a7.794,7.794,0,0,1-.3-2.25c0-2.55,1.349-3.3,2.549-3.3a1.845,1.845,0,0,1,2.1,1.95c0,1.95-1.35,3-1.35,4.5a1.986,1.986,0,0,0,1.95,1.95c3.45,0,4.8-2.7,4.8-5.1a6.3,6.3,0,1,0-11.849,2.85,1.352,1.352,0,0,1,.15.75,1.417,1.417,0,0,1-1.5,1.5,1.575,1.575,0,0,1-1.35-.75,9.225,9.225,0,1,1,17.4-4.5C188.288,1990.1,185.888,1994.29,180.489,1994.29Z" transform="translate(-164 -1973)"/>
</svg>
